<?xml version="1.0" encoding="UTF-8"?>
<svg id="Layer_1" data-name="Layer 1" xmlns="http://www.w3.org/2000/svg" viewBox="0 0 464.85 119.15">
  <defs>
    <style>
      .cls-1 {
        fill: #fff;
      }

      .cls-2 {
        fill: #07aedb;
      }
    </style>
  </defs>
  <g>
    <path class="cls-1" d="M45.12,73.89l-18.95-25.56c-1.35-1.82-.05-4.4,2.22-4.4h.01c.87,0,1.69.41,2.22,1.11l18.14,24.42M48.75,69.46c11.28-14.25,22.39-33.42,28.65-58.72,0,0,.57,50.71-56.48,96.6-1.69,1.36-4.13,1.44-5.7-.02h0c-1.63-1.52-1.58-4.01.11-5.47,5.31-4.6,17.34-13.36,29.78-27.96M55.49,78.54c-1.13,1.52-2.31,3.04-3.54,4.57l12.14,16.37c.52.7,1.34,1.12,2.22,1.12h.09c2.27,0,3.57-2.58,2.22-4.41l-13.11-17.65Z"/>
    <path class="cls-2" d="M48.75,69.46c11.28-14.25,22.39-33.42,28.65-58.72,0,0,.57,50.71-56.48,96.6-1.69,1.36-4.13,1.44-5.7-.02h0c-1.63-1.52-1.58-4.01.11-5.47,5.31-4.6,17.34-13.36,29.78-27.96"/>
  </g>
  <g>
    <path class="cls-1" d="M146.8,80.82l-9.65-13.16-9.61,13.15c-.27.37-.7.59-1.16.59h-.21c-1.18,0-1.86-1.34-1.16-2.29l10.17-13.77-9.43-12.88c-.7-.95-.02-2.29,1.16-2.29h.23c.46,0,.89.22,1.16.58l8.98,12.18,8.94-12.17c.27-.37.7-.59,1.16-.59h0c1.18,0,1.86,1.34,1.16,2.29l-9.39,12.79,10.22,13.86c.7.95.02,2.29-1.16,2.29h-.26c-.46,0-.89-.22-1.16-.59Z"/>
    <path class="cls-1" d="M352.19,53.03h-9.58c-.77,0-1.4-.63-1.4-1.4v-.05c0-.77.63-1.4,1.4-1.4h22.45c.77,0,1.4.63,1.4,1.4v.05c0,.77-.63,1.4-1.4,1.4h-9.57v26.98c0,.77-.63,1.4-1.4,1.4h-.5c-.77,0-1.4-.63-1.4-1.4v-26.98Z"/>
    <path class="cls-1" d="M194.11,65.79c0-9.1,6.96-15.89,16.42-15.89s16.38,6.74,16.38,15.89-7.01,15.89-16.38,15.89-16.42-6.78-16.42-15.89ZM223.61,65.79c0-7.45-5.58-12.94-13.07-12.94s-13.16,5.49-13.16,12.94,5.62,12.94,13.16,12.94,13.07-5.49,13.07-12.94Z"/>
    <path class="cls-1" d="M263.02,51.58v28.43c0,.77-.63,1.4-1.4,1.4h-.64c-.43,0-.83-.2-1.1-.53l-19.66-24.81v23.94c0,.77-.63,1.4-1.4,1.4h-.5c-.77,0-1.4-.63-1.4-1.4v-28.43c0-.77.63-1.4,1.4-1.4h.64c.43,0,.83.2,1.1.53l19.7,24.82v-23.94c0-.77.63-1.4,1.4-1.4h.45c.77,0,1.4.63,1.4,1.4Z"/>
    <path class="cls-1" d="M331.21,51.58v28.43c0,.77-.63,1.4-1.4,1.4h-.64c-.43,0-.83-.2-1.1-.53l-19.66-24.81v23.94c0,.77-.63,1.4-1.4,1.4h-.5c-.77,0-1.4-.63-1.4-1.4v-28.43c0-.77.63-1.4,1.4-1.4h.64c.43,0,.83.2,1.1.53l19.7,24.82v-23.94c0-.77.63-1.4,1.4-1.4h.45c.77,0,1.4.63,1.4,1.4Z"/>
    <path class="cls-1" d="M431.43,50.17h.5c.77,0,1.4.63,1.4,1.4v26.98h16.09c.77,0,1.4.63,1.4,1.4v.05c0,.77-.63,1.4-1.4,1.4h-17.99c-.77,0-1.4-.63-1.4-1.4v-28.43c0-.77.63-1.4,1.4-1.4Z"/>
    <path class="cls-1" d="M405.62,50.17h-1.45c-.55,0-1.05.32-1.28.82l-13,28.43c-.42.93.25,1.99,1.28,1.99h.34c.55,0,1.05-.32,1.28-.83l12.08-26.97,12.08,26.97c.23.5.73.83,1.28.83h.39c1.02,0,1.7-1.06,1.28-1.99l-13-28.43c-.23-.5-.73-.82-1.28-.82Z"/>
    <path class="cls-1" d="M184.11,60.88c0,6.65-4.82,10.66-12.76,10.66h-8.39v8.46c0,.77-.63,1.4-1.4,1.4h-.5c-.77,0-1.4-.63-1.4-1.4v-28.43c0-.77.63-1.4,1.4-1.4h10.29c7.94,0,12.76,4.02,12.76,10.71ZM180.81,60.88c0-5-3.3-7.85-9.55-7.85h-8.3v15.62h8.3c6.25,0,9.55-2.86,9.55-7.76Z"/>
    <path class="cls-1" d="M377.87,50.17h.5c.77,0,1.4.63,1.4,1.4v28.43c0,.77-.63,1.4-1.4,1.4h-.5c-.77,0-1.4-.63-1.4-1.4v-28.43c0-.77.63-1.4,1.4-1.4Z"/>
    <path class="cls-1" d="M114.72,79.96v.05c0,.77-.63,1.4-1.4,1.4h-19.28c-.77,0-1.4-.63-1.4-1.4v-28.43c0-.77.63-1.4,1.4-1.4h15.5c.77,0,1.4.63,1.4,1.4v.05c0,.77-.63,1.4-1.4,1.4h-13.6v11.11h11.63c.77,0,1.4.63,1.4,1.4h0c0,.78-.63,1.41-1.4,1.41h-11.63v11.6h17.38c.77,0,1.4.63,1.4,1.4Z"/>
    <path class="cls-1" d="M295.1,79.96v.05c0,.77-.63,1.4-1.4,1.4h-19.28c-.77,0-1.4-.63-1.4-1.4v-28.43c0-.77.63-1.4,1.4-1.4h15.5c.77,0,1.4.63,1.4,1.4v.05c0,.77-.63,1.4-1.4,1.4h-13.6v11.11h11.63c.77,0,1.4.63,1.4,1.4h0c0,.78-.63,1.41-1.4,1.41h-11.63v11.6h17.38c.77,0,1.4.63,1.4,1.4Z"/>
  </g>
</svg>